# xmcd CD database file
#
# Track frame offsets:
#	150
#	38187
#	72442
#	108542
#	132777
#	161832
#	181400
#	210615
#	240225
#	262700
#	280370
#
# Disc length: 3984 seconds
#
# Revision: 0
# Processed by: cddbd v1.5.2PL0 Copyright (c) Steve Scherf et al.
# Submitted via: CDex 1.70beta2
#
DISCID=9a0f8e0b
DTITLE=Willie Sordillo - Echoing
DYEAR=2002
DGENRE=Jazz
TTITLE0=Snow Tracks
TTITLE1=Noel Nouvelet
TTITLE2=Blood Count
TTITLE3=Holler
TTITLE4=Amazing Grace
TTITLE5=Ladrón
TTITLE6=Echoes
TTITLE7=Walk that Talk
TTITLE8=Beautiful Love
TTITLE9=Anthropology
TTITLE10=Hotcakes
EXTD=YEAR: 2002
EXTT0=
EXTT1=
EXTT2=
EXTT3=
EXTT4=
EXTT5=
EXTT6=
EXTT7=
EXTT8=
EXTT9=
EXTT10=
PLAYORDER=
